<svg height="512" viewBox="0 0 512 512" width="512" xmlns="http://www.w3.org/2000/svg"><rect fill="#d7322d" height="432" rx="16" width="392" x="36" y="64"/><rect fill="#f04b37" height="432" rx="16" width="368" x="36" y="64"/><rect fill="#d7322d" height="432" rx="16" width="296" x="36" y="64"/><rect fill="#f04b37" height="432" rx="16" width="272" x="36" y="64"/><path d="m332 88h40a8 8 0 0 1 8 8v368a8 8 0 0 1 -8 8h-40a0 0 0 0 1 0 0v-384a0 0 0 0 1 0 0z" fill="#d7e6f0"/><path d="m132 16a16 16 0 0 1 16 16v16a0 0 0 0 1 0 0h-32a0 0 0 0 1 0 0v-16a16 16 0 0 1 16-16z" fill="#55525b"/><path d="m132 16a16 16 0 0 1 16 16v16a0 0 0 0 1 0 0h-16a0 0 0 0 1 0 0v-32a0 0 0 0 1 0 0z" fill="#353744"/><path d="m100 80h64v200h-64z" fill="#d7e6f0"/><path d="m132 80h32v200h-32z" fill="#a5c3dc"/><path d="m100 280h64v120h-64z" fill="#55525b"/><path d="m132 280h32v120h-32z" fill="#353744"/><path d="m164 400h-64l28.672 43.008a4 4 0 0 0 6.656 0z" fill="#a5c3dc"/><path d="m142.667 432h-21.334l7.339 11.008a4 4 0 0 0 6.656 0z" fill="#353744"/><path d="m100 80v-16h-16a16 16 0 0 0 -16 16v95.548c0 8.615 6.621 16.028 15.226 16.434a16 16 0 1 0 .774-31.982v-80z" fill="#55525b"/><path d="m116 48h32a16 16 0 0 1 16 16v16a0 0 0 0 1 0 0h-64a0 0 0 0 1 0 0v-16a16 16 0 0 1 16-16z" fill="#55525b"/><path d="m132 48h16a16 16 0 0 1 16 16v16a0 0 0 0 1 0 0h-32a0 0 0 0 1 0 0v-32a0 0 0 0 1 0 0z" fill="#353744"/><circle cx="356" cy="280" fill="#fabe19" r="120"/><path d="m400 200h16a4 4 0 0 1 4 4v52l-24-24v-28a4 4 0 0 1 4-4z" fill="#353744"/><path d="m404 352h-96a16 16 0 0 1 -16-16v-80l64-64 64 64v80a16 16 0 0 1 -16 16z" fill="#d7e6f0"/><path d="m436 280a7.976 7.976 0 0 1 -5.657-2.343l-74.343-74.343-74.343 74.343a8 8 0 0 1 -11.314-11.314l80-80a8 8 0 0 1 11.314 0l80 80a8 8 0 0 1 -5.657 13.657z" fill="#353744"/><path d="m340 280h32a8 8 0 0 1 8 8v64a0 0 0 0 1 0 0h-48a0 0 0 0 1 0 0v-64a8 8 0 0 1 8-8z" fill="#353744"/><circle cx="356" cy="248" fill="#6478b9" r="16"/></svg>